<?xml version="1.0" standalone="no"?>
<!DOCTYPE svg PUBLIC "-//W3C//DTD SVG 20010904//EN"
 "http://www.w3.org/TR/2001/REC-SVG-20010904/DTD/svg10.dtd">
<svg version="1.0" xmlns="http://www.w3.org/2000/svg"
 width="300.000000pt" height="197.000000pt" viewBox="0 0 300.000000 197.000000"
 preserveAspectRatio="xMidYMid meet">
<metadata>
Created by potrace 1.10, written by Peter Selinger 2001-2011
</metadata>
<g transform="translate(0.000000,197.000000) scale(0.100000,-0.100000)"
fill="#000000" stroke="none">
<path d="M1218 1476 c-21 -7 -49 -21 -63 -30 -35 -23 -82 -91 -90 -129 -4 -18
-9 -40 -11 -49 -4 -13 0 -18 14 -18 14 0 19 7 20 29 2 82 94 161 187 161 90 0
185 -78 185 -153 0 -20 4 -23 24 -20 24 5 24 6 11 51 -37 120 -171 198 -277
158z"/>
</g>
</svg>
